<?xml version="1.0" encoding="utf-8"?>
<!-- Generator: Adobe Illustrator 19.0.0, SVG Export Plug-In . SVG Version: 6.00 Build 0)  -->
<svg version="1.1" baseProfile="tiny" id="Layer_1" xmlns="http://www.w3.org/2000/svg" xmlns:xlink="http://www.w3.org/1999/xlink"
	 x="0px" y="0px" viewBox="0 0 141.7 141.7" xml:space="preserve">
<path id="XMLID_1_" fill="none" stroke="#FFFFFF" stroke-width="4" stroke-miterlimit="10" d="M9,70.6c0.1-33.8,28-61.8,61.9-61.9
	c0,0,0,0,0,0c34.1-0.1,62.1,28.1,62.1,62.1c0,33.9-28,62-62,62C36.9,132.8,8.9,104.6,9,70.6z"/>
<line id="XMLID_4_" fill="none" stroke="#FFFFFF" stroke-width="4" stroke-miterlimit="10" x1="8.9" y1="70.9" x2="17.7" y2="70.9"/>
<line id="XMLID_5_" fill="none" stroke="#FFFFFF" stroke-width="4" stroke-miterlimit="10" x1="71" y1="132.8" x2="70.9" y2="124"/>
<line id="XMLID_6_" fill="none" stroke="#FFFFFF" stroke-width="4" stroke-miterlimit="10" x1="132.9" y1="70.8" x2="124" y2="70.9"/>
<path id="XMLID_3_" fill="none" stroke="#FFFFFF" stroke-width="4" stroke-miterlimit="10" d="M70.8,8.7"/>
<path id="XMLID_2_" fill="none" stroke="#FFFFFF" stroke-width="4" stroke-miterlimit="10" d="M115.2,26.6"/>
<line id="XMLID_8_" fill="none" stroke="#FFFFFF" stroke-width="4" stroke-miterlimit="10" x1="70.9" y1="17.7" x2="70.8" y2="8.7"/>
<polyline id="XMLID_7_" fill="none" stroke="#FFFFFF" stroke-width="4" stroke-miterlimit="10" points="79.7,17.7 70.9,70.9 
	88.6,97.4 "/>
</svg>
